<?xml version="1.0" encoding="UTF-8"?>
<!DOCTYPE svg PUBLIC "-//W3C//DTD SVG 1.1//EN" "http://www.w3.org/Graphics/SVG/1.1/DTD/svg11.dtd">
<!-- Creator: CorelDRAW X7 -->
<svg xmlns="http://www.w3.org/2000/svg" xml:space="preserve" width="1024px" height="400px" version="1.1" style="shape-rendering:geometricPrecision; text-rendering:geometricPrecision; image-rendering:optimizeQuality; fill-rule:evenodd; clip-rule:evenodd"
viewBox="0 0 102400 40000"
 xmlns:xlink="http://www.w3.org/1999/xlink">
 <defs>
  <style type="text/css">
   <![CDATA[
    .fil0 {fill:#BC272B}
    .fil2 {fill:white}
    .fil1 {fill:white;fill-rule:nonzero}
   ]]>
  </style>
 </defs>
 <g id="Layer_x0020_1">
  <metadata id="CorelCorpID_0Corel-Layer"/>
  <rect class="fil0" width="102400" height="40000"/>
  <g id="_247636400">
   <path class="fil1" d="M70615 17491l-2349 -6244c243,-37 483,-61 719,-73 237,-12 471,-18 701,-18 437,0 893,36 1366,109l2075 6281 -2603 6792c-303,49 -561,82 -774,101 -212,18 -421,27 -628,27 -218,0 -434,-9 -646,-27 -212,-19 -458,-46 -737,-83l2876 -6865zm2640 55l2039 -6281c473,-73 928,-109 1365,-109 231,0 464,6 701,18 237,12 476,36 719,73l-2312 6244 2840 6865c-279,37 -525,64 -737,83 -212,18 -428,27 -646,27 -207,0 -416,-9 -629,-27 -212,-19 -470,-52 -773,-101l-2567 -6792z"/>
   <path class="fil1" d="M56837 14917c279,-61 525,-95 737,-101 212,-6 410,-9 592,-9 243,0 491,7 746,18 255,13 486,43 692,92l1966 8234 2221 -8234c401,-73 813,-110 1238,-110 182,0 376,3 583,9 206,6 461,40 764,101l-3513 11667c-146,462 -319,846 -519,1150 -200,305 -428,542 -683,712 -255,171 -540,289 -855,356 -316,67 -656,101 -1020,101 -340,0 -646,-22 -919,-64 -274,-43 -543,-101 -810,-174 -13,-61 -19,-112 -19,-155 0,-42 0,-88 0,-137 0,-292 34,-569 101,-830 66,-262 148,-515 245,-758 110,36 255,70 437,100 182,31 364,46 546,46 146,0 291,-10 437,-28 146,-18 288,-73 428,-164 140,-91 270,-234 391,-429 122,-195 231,-469 328,-821l310 -1133c-134,13 -283,22 -446,28 -164,6 -331,9 -501,9 -133,0 -261,0 -382,0 -122,0 -231,-12 -328,-37l-2767 -9439z"/>
   <path class="fil1" d="M52501 18148c0,-292 -49,-529 -146,-712 -97,-182 -230,-325 -400,-428 -170,-104 -380,-174 -629,-211 -248,-36 -525,-54 -828,-54 -655,0 -1353,127 -2094,383 -169,-317 -297,-614 -382,-895 -85,-279 -127,-614 -127,-1004 534,-182 1068,-316 1602,-402 534,-85 1032,-127 1493,-127 1262,0 2248,304 2958,913 710,608 1065,1582 1065,2921l0 5477c-425,134 -941,262 -1548,384 -606,122 -1292,182 -2057,182 -619,0 -1186,-54 -1702,-164 -516,-109 -958,-292 -1329,-548 -370,-255 -655,-584 -855,-986 -201,-401 -301,-894 -301,-1478 0,-585 125,-1074 373,-1470 249,-396 571,-713 965,-950 395,-237 835,-407 1320,-511 485,-103 971,-155 1457,-155 352,0 740,18 1165,55l0 -220zm0 1881c-146,-24 -304,-46 -474,-64 -169,-18 -321,-27 -455,-27 -594,0 -1065,106 -1411,319 -346,213 -518,557 -518,1032 0,316 66,560 200,730 133,171 294,296 482,375 188,79 389,127 601,146 212,18 397,27 555,27 182,0 364,-15 546,-46 182,-30 340,-57 474,-82l0 -2410z"/>
   <path class="fil1" d="M40758 11009c437,-72 868,-109 1293,-109 413,0 837,37 1274,109l0 9586c0,378 21,682 64,913 43,231 109,411 200,539 92,127 210,216 355,265 146,48 328,73 546,73 97,0 204,-6 319,-19 115,-12 228,-30 337,-54 133,499 200,985 200,1460 0,98 0,186 0,265 0,79 -12,167 -36,265 -194,60 -428,103 -701,127 -273,25 -525,37 -756,37 -934,0 -1684,-259 -2248,-776 -564,-517 -847,-1360 -847,-2529l0 -10152z"/>
   <path class="fil2" d="M29128 24281l-3243 4645c-141,202 -448,233 -682,68l-1170 -822c-234,-164 -310,-464 -169,-666 1079,-1545 2157,-3090 3237,-4635 134,-192 273,-354 415,-487 -666,-669 -1200,-1490 -1544,-2437 -1261,-3475 526,-7317 3991,-8582 3465,-1265 7296,527 8558,4002 1261,3475 -526,7318 -3991,8583 -1727,630 -3546,501 -5092,-218 -76,176 -178,360 -310,549zm3675 -7548l1405 813 0 1c48,28 89,68 119,120 90,157 36,358 -120,448l-1405 813 -1378 798c-53,38 -119,61 -190,61 -181,0 -329,-148 -329,-330l0 -1626 0 -1627 2 0c0,-56 14,-112 43,-164 91,-157 291,-211 447,-120l1388 803c6,3 12,6 18,10zm3528 -567c821,2262 -342,4764 -2598,5587 -2256,824 -4750,-343 -5571,-2605 -821,-2262 342,-4764 2598,-5587 2255,-823 4750,343 5571,2605z"/>
  </g>
 </g>
</svg>
