<?xml version="1.0" encoding="UTF-8"?>
<!DOCTYPE svg PUBLIC "-//W3C//DTD SVG 1.1//EN" "http://www.w3.org/Graphics/SVG/1.1/DTD/svg11.dtd">
<!-- Creator: CorelDRAW X7 -->
<svg xmlns="http://www.w3.org/2000/svg" xml:space="preserve" width="1024px" height="340px" version="1.1" style="shape-rendering:geometricPrecision; text-rendering:geometricPrecision; image-rendering:optimizeQuality; fill-rule:evenodd; clip-rule:evenodd"
viewBox="0 0 102400 34000"
 xmlns:xlink="http://www.w3.org/1999/xlink">
 <defs>
  <style type="text/css">
   <![CDATA[
    .fil1 {fill:#BC272B}
    .fil0 {fill:#BC272B;fill-rule:nonzero}
   ]]>
  </style>
 </defs>
 <g id="Layer_x0020_1">
  <metadata id="CorelCorpID_0Corel-Layer"/>
  <g id="_246594456">
   <path class="fil0" d="M87469 12313l-4387 -11665c454,-68 902,-113 1344,-137 442,-22 878,-33 1309,-33 816,0 1667,68 2551,204l3877 11734 -4863 12688c-567,91 -1049,154 -1446,188 -396,34 -787,51 -1173,51 -408,0 -811,-17 -1207,-51 -397,-34 -856,-85 -1378,-154l5373 -12825zm4933 103l3809 -11734c883,-136 1734,-204 2550,-204 431,0 867,11 1309,33 443,24 890,69 1344,137l-4320 11665 5306 12825c-521,69 -980,120 -1377,154 -397,34 -800,51 -1207,51 -386,0 -777,-17 -1174,-51 -397,-34 -879,-97 -1445,-188l-4795 -12688z"/>
   <path class="fil0" d="M61730 7504c522,-114 981,-176 1378,-188 396,-11 765,-17 1105,-17 453,0 918,12 1394,34 477,23 908,80 1293,171l3673 15383 4149 -15383c748,-137 1519,-205 2313,-205 340,0 703,6 1088,17 385,12 862,74 1428,188l-6563 21795c-273,864 -595,1581 -970,2149 -374,569 -799,1012 -1275,1331 -476,318 -1009,539 -1598,665 -590,125 -1225,188 -1905,188 -635,0 -1207,-40 -1718,-120 -510,-79 -1014,-188 -1513,-324 -23,-114 -34,-211 -34,-290 0,-79 0,-165 0,-256 0,-545 62,-1063 187,-1551 125,-490 278,-962 459,-1416 204,68 476,131 817,188 340,56 679,84 1019,84 273,0 545,-17 817,-51 272,-33 538,-136 799,-307 261,-170 505,-437 731,-801 227,-364 431,-875 612,-1535l578 -2115c-249,23 -527,40 -832,51 -307,12 -619,18 -936,18 -249,0 -487,0 -714,0 -227,0 -431,-24 -612,-69l-5170 -17634z"/>
   <path class="fil0" d="M53630 13541c0,-546 -91,-989 -272,-1330 -182,-341 -431,-608 -748,-801 -318,-194 -709,-325 -1174,-393 -465,-68 -980,-102 -1547,-102 -1225,0 -2528,238 -3912,716 -316,-591 -555,-1148 -713,-1671 -159,-523 -238,-1149 -238,-1876 997,-341 1994,-591 2992,-751 998,-159 1928,-238 2789,-238 2358,0 4200,568 5527,1705 1326,1137 1989,2956 1989,5457l0 10233c-793,250 -1757,489 -2891,717 -1133,227 -2414,340 -3842,340 -1157,0 -2217,-101 -3180,-306 -964,-205 -1792,-546 -2483,-1024 -692,-477 -1225,-1091 -1599,-1842 -374,-750 -561,-1671 -561,-2762 0,-1092 233,-2007 697,-2746 465,-739 1066,-1331 1803,-1774 736,-443 1559,-762 2466,-955 906,-193 1813,-290 2720,-290 658,0 1383,35 2177,103l0 -410zm0 3513c-272,-45 -567,-85 -884,-119 -318,-34 -601,-51 -851,-51 -1111,0 -1989,199 -2636,597 -646,398 -969,1040 -969,1927 0,591 125,1046 374,1364 250,319 550,552 902,700 351,147 725,238 1122,272 397,34 742,51 1037,51 341,0 681,-28 1021,-85 340,-57 634,-108 884,-153l0 -4503z"/>
   <path class="fil0" d="M31694 204c816,-136 1621,-204 2415,-204 770,0 1564,68 2380,204l0 17908c0,705 40,1273 120,1705 79,432 203,768 373,1007 171,238 391,403 664,494 272,91 611,137 1020,137 181,0 379,-11 595,-35 215,-22 425,-57 629,-102 249,933 374,1842 374,2729 0,182 0,347 0,494 0,148 -23,313 -68,495 -363,113 -799,193 -1309,239 -510,45 -981,68 -1412,68 -1745,0 -3146,-483 -4200,-1450 -1054,-966 -1581,-2541 -1581,-4724l0 -18965z"/>
   <path class="fil1" d="M9967 24998l-6058 8676c-264,378 -837,435 -1274,128l-2187 -1535c-437,-307 -579,-867 -315,-1244 2015,-2887 4030,-5774 6046,-8660 251,-359 511,-660 776,-909 -1244,-1250 -2242,-2784 -2884,-4552 -2356,-6493 982,-13671 7455,-16034 6473,-2363 13631,985 15987,7477 2356,6492 -981,13670 -7455,16033 -3227,1178 -6624,937 -9512,-406 -142,329 -332,672 -579,1026zm6865 -14101l2625 1519 -1 1c90,52 168,128 224,225 168,293 67,668 -226,837l-2624 1519 -2573 1490c-101,72 -223,114 -356,114 -339,0 -614,-276 -614,-616l0 -3039 0 -3038 3 0c0,-104 26,-210 81,-306 169,-294 542,-395 834,-226l2593 1501c12,6 23,12 34,19zm6590 -1059c1534,4226 -639,8898 -4853,10437 -4213,1538 -8873,-641 -10406,-4867 -1534,-4226 639,-8899 4852,-10436 4214,-1539 8873,640 10407,4866z"/>
  </g>
 </g>
</svg>
