<?xml version="1.0" encoding="UTF-8"?>
<!DOCTYPE svg PUBLIC "-//W3C//DTD SVG 1.1//EN" "http://www.w3.org/Graphics/SVG/1.1/DTD/svg11.dtd">
<!-- Creator: CorelDRAW X7 -->
<svg xmlns="http://www.w3.org/2000/svg" xml:space="preserve" width="144px" height="144px" version="1.1" style="shape-rendering:geometricPrecision; text-rendering:geometricPrecision; image-rendering:optimizeQuality; fill-rule:evenodd; clip-rule:evenodd"
viewBox="0 0 14400 14400"
 xmlns:xlink="http://www.w3.org/1999/xlink">
 <defs>
  <style type="text/css">
   <![CDATA[
    .fil2 {fill:#FEFEFE}
    .fil0 {fill:#BC272B}
    .fil1 {fill:#8E2528}
   ]]>
  </style>
 </defs>
 <g id="Layer_x0020_1">
  <metadata id="CorelCorpID_0Corel-Layer"/>
  <g id="_239701352">
   <rect class="fil0" width="14400" height="14400" rx="2922" ry="2922"/>
   <g>
    <path class="fil1" d="M9844 3955l-93 -85c32,28 63,56 93,85zm4556 2806l0 4717c0,1607 -1315,2922 -2922,2922l-7106 0 -1785 -1715 -9 -9c-105,-105 -133,-259 -58,-366 658,-940 1317,-1880 1974,-2819 122,-174 252,-307 382,-402 -1420,-1391 -1667,-3644 -490,-5326 1311,-1872 3892,-2327 5764,-1016 176,123 339,257 489,400l3761 3614zm-5029 -3172l-131 -78c-45,-25 -89,-48 -134,-71l-137 -63 -2 -1 -2 -1c-43,-18 -87,-36 -130,-52l-2 -1 -2 -1 -140 -48c-47,-15 -94,-29 -142,-42l822 358zm-969 -393c-46,-10 -93,-19 -139,-26l139 26zm-283 -46c-47,-5 -94,-10 -140,-13l140 13zm-290 -19c-48,-1 -96,-1 -144,1l144 -1zm-288 9c-48,4 -96,9 -144,15l144 -15zm-287 37c-47,8 -94,17 -141,28l141 -28zm-281 63c-46,13 -92,27 -138,42l138 -42zm-274 90c-45,18 -90,36 -134,55l134 -55zm-266 117c-43,22 -86,44 -129,68l129 -68zm-254 143c-42,26 -82,53 -123,81l123 -81zm-242 168c-38,30 -77,61 -115,94l115 -94zm-225 193c-37,35 -72,70 -107,107l107 -107zm-209 219c-33,38 -65,78 -97,118l97 -118zm-189 243c-30,42 -58,85 -85,129l85 -129zm-163 260c-25,45 -49,89 -71,134l71 -134zm-136 275c-19,43 -36,86 -53,130l53 -130zm-103 274c-15,47 -29,94 -41,142l41 -142zm-76 289c-10,46 -19,93 -26,139l26 -139zm-46 283c-6,47 -10,94 -13,140l13 -140zm-19 290c-1,48 -1,96 1,144l-1 -144zm9 289c4,47 9,95 15,143l-15 -143zm36 286c9,47 18,94 29,141l-29 -141zm64 281c13,46 27,92 42,138l-42 -138zm92 279c17,43 34,86 53,129l-53 -129zm115 261c21,43 44,86 68,129l-68 -129zm142 254c26,42 53,82 81,123l-81 -123zm169 242c30,39 61,77 93,115l-93 -115zm193 225c34,37 70,72 106,107l-106 -107zm0 0c-34,-36 -68,-73 -100,-110l100 110zm-193 -225c-30,-38 -58,-77 -85,-116l85 116zm-169 -242c-26,-41 -50,-83 -74,-125l74 125zm-144 -258c-21,-42 -41,-85 -60,-128l60 128zm-115 -262c-17,-45 -33,-90 -48,-136l48 136zm-91 -278c-13,-45 -24,-91 -34,-136l34 136zm-64 -282c-8,-46 -14,-92 -20,-138l20 138zm-35 -281c-4,-47 -7,-94 -8,-140l8 140zm-9 -289c1,-49 3,-97 6,-145l-6 145zm19 -290c5,-48 12,-96 20,-144l-20 144zm47 -287c10,-48 21,-96 34,-143l-34 143zm75 -285c15,-47 31,-93 49,-140l-49 140zm105 -278c20,-46 41,-91 63,-137l-63 137zm134 -271c24,-44 50,-88 78,-131l-78 131zm163 -260c30,-43 61,-84 92,-125l-92 125zm192 -247c33,-37 65,-73 99,-108l-99 108zm206 -215c36,-34 73,-67 110,-99l-110 99zm225 -193c38,-29 77,-57 116,-85l-116 85zm242 -168c41,-26 83,-51 125,-75l-125 75zm258 -145c42,-21 85,-41 128,-60l-128 60zm262 -115c45,-17 90,-33 136,-48l-136 48zm278 -91c45,-12 91,-24 136,-34l-136 34zm282 -63c46,-8 92,-15 138,-21l-138 21zm282 -36c46,-4 93,-6 139,-8l-139 8zm288 -9c48,1 97,3 145,6l-145 -6zm290 19c48,5 96,12 144,20l-144 -20zm288 47c47,10 95,22 142,34l-142 -34zm284 76c47,15 93,31 140,48l-140 -48zm549 238l-134 -71c-46,-22 -91,-43 -137,-63l271 134zm-275 -136l-130 -52 130 52zm770 482l-105 -87c36,28 71,57 105,87zm-115 -94l-120 -89c-42,-29 -85,-58 -129,-85l129 85c41,29 81,58 120,89zm-380 -252c44,25 88,51 131,78l-131 -78z"/>
   </g>
   <path class="fil2" d="M9500 3674c1360,953 1691,2827 739,4187 -953,1360 -2827,1690 -4187,738 -1360,-952 -1690,-2827 -738,-4186 952,-1360 2827,-1691 4186,-739zm-1327 1779l870 503 0 0c30,17 56,42 74,74 56,98 23,222 -75,277l-870 503 -854 493c-33,24 -74,38 -118,38 -112,0 -204,-92 -204,-204l0 -1005 0 -1006 1 0c0,-34 9,-69 27,-101 56,-97 180,-130 277,-75l860 497c4,2 8,4 12,6zm-2422 4909l-1978 2825c-86,123 -275,140 -420,39l-725 -508c-145,-102 -194,-285 -108,-408 658,-940 1317,-1880 1974,-2819 122,-174 252,-307 382,-402 -1420,-1391 -1667,-3644 -490,-5326 1311,-1872 3892,-2327 5764,-1016 1872,1311 2327,3891 1016,5763 -1177,1681 -3378,2220 -5170,1363 -45,153 -125,317 -245,489z"/>
  </g>
 </g>
</svg>
