<?xml version="1.0" encoding="UTF-8"?>
<!DOCTYPE svg PUBLIC "-//W3C//DTD SVG 1.1//EN" "http://www.w3.org/Graphics/SVG/1.1/DTD/svg11.dtd">
<!-- Creator: CorelDRAW X7 -->
<svg xmlns="http://www.w3.org/2000/svg" xml:space="preserve" width="16px" height="16px" version="1.1" style="shape-rendering:geometricPrecision; text-rendering:geometricPrecision; image-rendering:optimizeQuality; fill-rule:evenodd; clip-rule:evenodd"
viewBox="0 0 1600 1600"
 xmlns:xlink="http://www.w3.org/1999/xlink">
 <defs>
  <style type="text/css">
   <![CDATA[
    .fil2 {fill:#FEFEFE}
    .fil0 {fill:#BC272B}
    .fil1 {fill:#8E2528}
   ]]>
  </style>
 </defs>
 <g id="Layer_x0020_1">
  <metadata id="CorelCorpID_0Corel-Layer"/>
  <g id="_240521304">
   <rect class="fil0" width="1600" height="1600" rx="325" ry="325"/>
   <g>
    <path class="fil1" d="M1094 439l-11 -9c4,3 7,6 11,9zm506 312l0 524c0,179 -146,325 -325,325l-789 0 -199 -191 -1 0c-11,-12 -14,-29 -6,-41 73,-105 146,-209 219,-313 14,-20 28,-34 43,-45 -158,-155 -186,-405 -55,-592 146,-208 433,-259 641,-113 19,14 37,29 54,45l418 401zm-559 -352l-14 -9c-5,-3 -10,-5 -15,-8l-15 -7 -1 0 0 0c-5,-2 -9,-4 -14,-6l-1 0 0 0 -15 -5c-6,-2 -11,-4 -16,-5l91 40zm-107 -44c-6,-1 -11,-2 -16,-3l16 3zm-32 -5c-5,-1 -10,-1 -16,-1l16 1zm-32 -2c-5,0 -11,0 -16,0l16 0zm-32 1c-6,0 -11,1 -16,2l16 -2zm-32 4c-5,1 -10,2 -16,3l16 -3zm-31 7c-5,1 -10,3 -16,5l16 -5zm-31 10c-5,2 -10,4 -15,6l15 -6zm-29 13c-5,2 -10,5 -15,8l15 -8zm-29 16c-4,3 -9,6 -13,9l13 -9zm-26 19c-5,3 -9,6 -13,10l13 -10zm-25 21c-4,4 -8,8 -12,12l12 -12zm-24 24c-3,5 -7,9 -10,13l10 -13zm-21 27c-3,5 -6,10 -9,15l9 -15zm-18 29c-2,5 -5,10 -8,15l8 -15zm-15 31c-2,5 -4,9 -6,14l6 -14zm-11 30c-2,6 -3,11 -5,16l5 -16zm-9 32c-1,6 -2,11 -3,16l3 -16zm-5 32c0,5 -1,10 -1,15l1 -15zm-2 32c0,5 0,11 0,16l0 -16zm1 32c1,5 1,11 2,16l-2 -16zm4 32c1,5 2,10 3,16l-3 -16zm7 31c2,5 3,10 5,15l-5 -15zm10 31c2,5 4,10 6,15l-6 -15zm13 29c3,5 5,10 8,14l-8 -14zm16 28c3,5 6,10 9,14l-9 -14zm19 27c3,4 7,9 10,13l-10 -13zm21 25c4,4 8,8 12,12l-12 -12zm0 0c-4,-4 -7,-8 -11,-12l11 12zm-21 -25c-4,-4 -7,-8 -10,-13l10 13zm-19 -27c-3,-4 -6,-9 -8,-14l8 14zm-16 -28c-2,-5 -5,-10 -7,-14l7 14zm-13 -29c-2,-5 -3,-11 -5,-16l5 16zm-10 -31c-1,-5 -3,-10 -4,-15l4 15zm-7 -32c-1,-5 -2,-10 -2,-15l2 15zm-4 -31c0,-5 -1,-10 -1,-15l1 15zm-1 -32c0,-5 0,-11 1,-16l-1 16zm2 -32c1,-6 2,-11 2,-16l-2 16zm5 -32c1,-5 3,-11 4,-16l-4 16zm9 -32c1,-5 3,-10 5,-15l-5 15zm11 -31c3,-5 5,-10 7,-15l-7 15zm15 -30c3,-5 6,-10 9,-14l-9 14zm18 -29c4,-4 7,-9 11,-14l-11 14zm22 -27c3,-4 7,-8 11,-12l-11 12zm23 -24c4,-4 8,-8 12,-11l-12 11zm25 -21c4,-4 8,-7 13,-10l-13 10zm26 -19c5,-3 10,-6 14,-8l-14 8zm29 -16c5,-3 10,-5 14,-7l-14 7zm29 -13c5,-2 10,-4 15,-5l-15 5zm31 -10c5,-2 10,-3 15,-4l-15 4zm31 -7c6,-1 11,-2 16,-2l-16 2zm32 -4c5,-1 10,-1 15,-1l-15 1zm32 -1c5,0 11,0 16,1l-16 -1zm32 2c5,1 11,1 16,2l-16 -2zm32 5c5,1 11,3 16,4l-16 -4zm32 9c5,1 10,3 15,5l-15 -5zm61 26l-15 -8c-5,-2 -10,-5 -15,-7l30 15zm-31 -15l-14 -6 14 6zm86 54l-12 -10c4,3 8,6 12,10zm-13 -11l-13 -10c-5,-3 -10,-6 -15,-9l15 9c4,3 9,7 13,10zm-42 -28c5,3 9,6 14,9l-14 -9z"/>
   </g>
   <path class="fil2" d="M1056 408c151,106 187,314 82,465 -106,152 -314,188 -466,82 -151,-105 -187,-314 -82,-465 106,-151 315,-188 466,-82zm-148 198l97 56 0 0c3,2 6,5 8,8 6,11 3,25 -8,31l-97 56 -95 54c-4,3 -8,5 -13,5 -13,0 -23,-11 -23,-23l0 -112 0 -111 0 0c0,-4 1,-8 4,-12 6,-10 19,-14 30,-8l96 55c0,0 1,1 1,1zm-269 545l-220 314c-9,14 -30,16 -46,5l-81 -57c-16,-11 -22,-32 -12,-45 73,-105 146,-209 219,-313 14,-20 28,-34 43,-45 -158,-155 -186,-405 -55,-592 146,-208 433,-259 641,-113 208,146 258,433 113,641 -131,186 -376,246 -575,151 -5,17 -14,35 -27,54z"/>
  </g>
 </g>
</svg>
