<?xml version="1.0" encoding="UTF-8"?>
<!DOCTYPE svg PUBLIC "-//W3C//DTD SVG 1.1//EN" "http://www.w3.org/Graphics/SVG/1.1/DTD/svg11.dtd">
<!-- Creator: CorelDRAW X7 -->
<svg xmlns="http://www.w3.org/2000/svg" xml:space="preserve" width="256px" height="256px" version="1.1" style="shape-rendering:geometricPrecision; text-rendering:geometricPrecision; image-rendering:optimizeQuality; fill-rule:evenodd; clip-rule:evenodd"
viewBox="0 0 25600 25600"
 xmlns:xlink="http://www.w3.org/1999/xlink">
 <defs>
  <style type="text/css">
   <![CDATA[
    .fil2 {fill:#FEFEFE}
    .fil0 {fill:#BC272B}
    .fil1 {fill:#8E2528}
   ]]>
  </style>
 </defs>
 <g id="Layer_x0020_1">
  <metadata id="CorelCorpID_0Corel-Layer"/>
  <g id="_239958008">
   <rect class="fil0" width="25600" height="25600" rx="5195" ry="5195"/>
   <g>
    <path class="fil1" d="M17501 7031l-166 -150c56,49 112,99 166,150zm8099 4988l0 8386c0,2857 -2338,5195 -5195,5195l-12632 0 -3174 -3049 -16 -16c-187,-186 -236,-460 -102,-651 1169,-1671 2339,-3341 3509,-5012 216,-309 447,-544 679,-714 -2524,-2473 -2965,-6478 -871,-9468 2331,-3329 6918,-4138 10247,-1807 312,219 601,457 869,712l6686 6424zm-8940 -5639l-234 -138c-79,-44 -158,-86 -238,-126l-243 -112 -4 -2 -4 -2c-76,-33 -153,-64 -230,-93l-4 -1 -4 -2 -249 -86c-83,-27 -167,-51 -251,-74l1461 636zm-1723 -698c-82,-17 -165,-33 -247,-47l247 47zm-504 -82c-83,-10 -166,-17 -249,-22l249 22zm-514 -34c-86,-1 -172,-1 -257,2l257 -2zm-514 16c-85,7 -170,16 -255,27l255 -27zm-508 65c-84,15 -168,32 -252,51l252 -51zm-500 113c-83,23 -165,48 -246,75l246 -75zm-488 161c-80,30 -160,63 -239,98l239 -98zm-472 207c-77,39 -154,79 -229,121l229 -121zm-453 254c-73,46 -146,94 -217,144l217 -144zm-428 299c-70,54 -138,109 -205,166l205 -166zm-402 344c-64,61 -128,124 -189,188l189 -188zm-371 388c-59,68 -116,139 -172,210l172 -210zm-336 432c-53,75 -103,152 -152,229l152 -229zm-290 463c-45,79 -86,158 -126,239l126 -239zm-242 489c-33,76 -64,153 -93,230l93 -230zm-182 487c-27,84 -51,167 -74,252l74 -252zm-136 513c-18,82 -33,165 -47,248l47 -248zm-82 504c-10,83 -17,166 -23,249l23 -249zm-34 515c-1,85 -1,171 2,257l-2 -257zm16 513c7,85 16,170 27,255l-27 -255zm65 509c15,84 32,167 51,251l-51 -251zm113 500c23,82 48,164 75,245l-75 -245zm164 495c30,78 61,155 95,231l-95 -231zm204 465c39,77 79,153 121,228l-121 -228zm254 452c46,73 94,146 144,218l-144 -218zm299 429c54,69 109,137 166,204l-166 -204zm344 401c61,65 124,128 188,190l-188 -190zm0 0c-61,-64 -121,-130 -178,-197l178 197zm-344 -401c-52,-67 -102,-136 -151,-205l151 205zm-299 -429c-46,-74 -91,-148 -133,-224l133 224zm-257 -460c-38,-74 -73,-150 -106,-226l106 226zm-204 -464c-31,-81 -60,-161 -86,-243l86 243zm-163 -496c-22,-80 -42,-160 -60,-241l60 241zm-112 -500c-15,-82 -27,-164 -37,-246l37 246zm-64 -501c-6,-83 -11,-166 -14,-248l14 248zm-16 -513c2,-86 5,-172 11,-258l-11 258zm34 -515c10,-86 21,-171 35,-256l-35 256zm83 -512c18,-84 39,-169 61,-253l-61 253zm135 -505c27,-83 55,-166 86,-249l-86 249zm186 -495c35,-81 72,-162 112,-242l-112 242zm238 -481c44,-79 90,-157 138,-234l-138 234zm290 -463c53,-76 108,-150 164,-222l-164 222zm342 -438c57,-66 116,-131 176,-194l-176 194zm365 -382c64,-61 130,-120 197,-178l-197 178zm402 -344c67,-52 135,-102 204,-151l-204 151zm428 -299c74,-46 149,-90 224,-133l-224 133zm460 -257c75,-37 150,-73 226,-106l-226 106zm465 -204c80,-31 160,-60 242,-86l-242 86zm495 -163c80,-22 161,-42 241,-60l-241 60zm501 -112c81,-14 163,-27 245,-37l-245 37zm500 -64c83,-6 166,-11 249,-14l-249 14zm514 -16c85,2 171,5 257,11l-257 -11zm514 34c86,10 171,21 257,35l-257 -35zm512 83c85,19 169,39 254,61l-254 -61zm505 135c84,27 167,55 249,86l-249 -86zm976 424l-238 -126c-81,-39 -161,-77 -243,-112l481 238zm-489 -242l-230 -93 230 93zm1370 857l-188 -154c64,50 127,101 188,154zm-205 -168l-213 -157c-75,-52 -152,-103 -229,-152l229 152c73,51 144,104 213,157zm-676 -447c79,44 157,90 234,138l-234 -138z"/>
   </g>
   <path class="fil2" d="M16889 6532c2418,1693 3006,5025 1313,7443 -1693,2417 -5025,3005 -7442,1312 -2418,-1693 -3005,-5025 -1313,-7442 1693,-2418 5025,-3005 7442,-1313zm-2360 3162l1548 894 0 1c53,30 99,75 131,132 100,173 40,393 -133,492l-1547 894 -1518 876c-59,42 -132,67 -210,67 -200,0 -362,-162 -362,-362l0 -1787 0 -1788 2 0c0,-61 15,-123 48,-179 99,-173 319,-232 492,-133l1529 883c7,3 13,7 20,10zm-4305 8728l-3516 5022c-153,218 -489,249 -747,68l-1289 -903c-258,-180 -344,-507 -191,-725 1169,-1671 2339,-3341 3509,-5012 216,-309 447,-544 679,-714 -2524,-2473 -2965,-6478 -871,-9468 2331,-3329 6918,-4138 10247,-1807 3328,2331 4137,6918 1806,10247 -2092,2988 -6005,3945 -9191,2422 -81,272 -222,564 -436,870z"/>
  </g>
 </g>
</svg>
