<?xml version="1.0" encoding="UTF-8"?>
<!DOCTYPE svg PUBLIC "-//W3C//DTD SVG 1.1//EN" "http://www.w3.org/Graphics/SVG/1.1/DTD/svg11.dtd">
<!-- Creator: CorelDRAW X7 -->
<svg xmlns="http://www.w3.org/2000/svg" xml:space="preserve" width="256px" height="85px" version="1.1" style="shape-rendering:geometricPrecision; text-rendering:geometricPrecision; image-rendering:optimizeQuality; fill-rule:evenodd; clip-rule:evenodd"
viewBox="0 0 25600 8500"
 xmlns:xlink="http://www.w3.org/1999/xlink">
 <defs>
  <style type="text/css">
   <![CDATA[
    .fil1 {fill:#BC272B}
    .fil0 {fill:#BC272B;fill-rule:nonzero}
   ]]>
  </style>
 </defs>
 <g id="Layer_x0020_1">
  <metadata id="CorelCorpID_0Corel-Layer"/>
  <g id="_246616256">
   <path class="fil0" d="M21867 3078l-1097 -2916c114,-17 226,-28 336,-34 111,-6 220,-9 328,-9 204,0 416,17 637,52l970 2933 -1216 3172c-142,23 -262,38 -362,47 -99,8 -196,13 -293,13 -102,0 -203,-5 -302,-13 -99,-9 -214,-21 -344,-39l1343 -3206zm1233 26l952 -2933c221,-35 434,-52 638,-52 108,0 217,3 327,9 111,6 223,17 336,34l-1080 2916 1327 3206c-131,18 -245,30 -345,39 -99,8 -199,13 -301,13 -97,0 -195,-5 -294,-13 -99,-9 -219,-24 -361,-47l-1199 -3172z"/>
   <path class="fil0" d="M15432 1876c131,-28 246,-44 345,-47 99,-3 191,-4 276,-4 114,0 230,3 349,8 119,6 227,20 323,43l918 3846 1037 -3846c187,-34 380,-51 579,-51 85,0 175,1 272,4 96,3 215,19 357,47l-1641 5449c-68,216 -149,395 -243,537 -93,142 -199,253 -318,333 -119,79 -253,135 -400,166 -147,31 -306,47 -476,47 -159,0 -302,-10 -430,-30 -127,-20 -253,-47 -378,-81 -6,-29 -8,-53 -8,-73 0,-19 0,-41 0,-64 0,-136 15,-265 46,-387 32,-123 70,-241 115,-354 51,17 119,32 204,47 85,14 170,21 255,21 68,0 136,-4 204,-13 68,-8 135,-34 200,-77 65,-42 126,-109 183,-200 57,-91 108,-219 153,-384l145 -529c-63,6 -132,10 -209,13 -76,3 -154,5 -234,5 -62,0 -121,0 -178,0 -57,0 -108,-6 -153,-18l-1293 -4408z"/>
   <path class="fil0" d="M13407 3385c0,-136 -22,-247 -67,-332 -46,-85 -108,-152 -188,-201 -79,-48 -177,-81 -293,-98 -116,-17 -245,-25 -387,-25 -306,0 -632,59 -978,179 -79,-148 -138,-287 -178,-418 -40,-131 -60,-287 -60,-469 250,-85 499,-148 749,-188 249,-39 481,-59 697,-59 589,0 1050,142 1381,426 332,284 498,739 498,1364l0 2558c-199,63 -439,123 -723,180 -283,56 -604,85 -961,85 -289,0 -554,-26 -795,-77 -241,-51 -447,-136 -620,-256 -173,-119 -306,-273 -400,-460 -93,-188 -140,-418 -140,-691 0,-273 58,-501 174,-686 116,-185 266,-333 451,-444 184,-111 389,-190 616,-239 227,-48 454,-72 680,-72 165,0 346,9 544,26l0 -103zm0 879c-67,-12 -141,-22 -221,-30 -79,-9 -150,-13 -212,-13 -278,0 -498,50 -659,149 -162,100 -242,260 -242,482 0,148 31,261 93,341 62,80 138,138 225,175 88,37 182,60 281,68 99,8 186,13 259,13 85,0 170,-7 255,-21 85,-15 159,-28 221,-39l0 -1125z"/>
   <path class="fil0" d="M7923 51c205,-34 406,-51 604,-51 193,0 391,17 595,51l0 4477c0,176 10,318 30,426 20,108 51,192 94,252 42,59 97,101 166,124 68,22 152,34 254,34 46,0 95,-3 149,-9 54,-6 107,-14 158,-25 62,233 93,460 93,682 0,45 0,86 0,123 0,37 -6,78 -17,124 -91,28 -200,48 -327,60 -128,11 -245,17 -353,17 -437,0 -787,-121 -1050,-363 -264,-241 -396,-635 -396,-1181l0 -4741z"/>
   <path class="fil1" d="M2492 6249l-1515 2169c-65,95 -209,109 -318,32l-547 -383c-109,-77 -144,-217 -79,-312 504,-721 1008,-1443 1512,-2164 63,-90 128,-165 194,-228 -311,-312 -560,-696 -721,-1138 -589,-1623 245,-3417 1864,-4008 1618,-591 3407,246 3996,1869 589,1623 -245,3418 -1863,4009 -807,294 -1656,234 -2378,-102 -36,82 -83,168 -145,256zm1716 -3525l656 380 0 0c23,13 42,32 56,56 42,74 17,168 -56,210l-656 380 -644 372c-25,18 -55,29 -88,29 -85,0 -154,-69 -154,-154l0 -760 0 -760 1 0c0,-26 6,-52 20,-76 42,-74 135,-99 209,-57l648 375c3,2 5,3 8,5zm1648 -264c383,1056 -160,2224 -1214,2609 -1053,384 -2218,-160 -2601,-1217 -384,-1056 160,-2225 1213,-2609 1053,-385 2218,160 2602,1217z"/>
  </g>
 </g>
</svg>
