<?xml version="1.0" encoding="UTF-8"?>
<!DOCTYPE svg PUBLIC "-//W3C//DTD SVG 1.1//EN" "http://www.w3.org/Graphics/SVG/1.1/DTD/svg11.dtd">
<!-- Creator: CorelDRAW X7 -->
<svg xmlns="http://www.w3.org/2000/svg" xml:space="preserve" width="48px" height="48px" version="1.1" style="shape-rendering:geometricPrecision; text-rendering:geometricPrecision; image-rendering:optimizeQuality; fill-rule:evenodd; clip-rule:evenodd"
viewBox="0 0 4800 4800"
 xmlns:xlink="http://www.w3.org/1999/xlink">
 <defs>
  <style type="text/css">
   <![CDATA[
    .fil2 {fill:#FEFEFE}
    .fil0 {fill:#BC272B}
    .fil1 {fill:#8E2528}
   ]]>
  </style>
 </defs>
 <g id="Layer_x0020_1">
  <metadata id="CorelCorpID_0Corel-Layer"/>
  <g id="_239095688">
   <rect class="fil0" width="4800" height="4800" rx="974" ry="974"/>
   <g>
    <path class="fil1" d="M3282 1318l-32 -28c11,9 21,19 32,28zm1518 936l0 1572c0,536 -438,974 -974,974l-2369 0 -595 -572 -3 -3c-35,-34 -44,-86 -19,-122 219,-313 439,-626 658,-939 41,-58 84,-103 127,-134 -473,-464 -555,-1215 -163,-1776 437,-624 1297,-776 1921,-338 59,41 113,85 163,133l1254 1205zm-1676 -1058l-44 -26c-15,-8 -30,-16 -45,-23l-45 -21 -1 -1 -1 0c-14,-6 -28,-12 -43,-17l-1 -1 0 0 -47 -16c-16,-5 -32,-10 -47,-14l274 119zm-323 -131c-16,-3 -31,-6 -47,-8l47 8zm-95 -15c-15,-2 -31,-3 -46,-4l46 4zm-96 -6c-16,-1 -32,-1 -48,0l48 0zm-96 3c-16,1 -32,3 -48,5l48 -5zm-96 12c-16,3 -31,6 -47,9l47 -9zm-94 21c-15,4 -30,9 -46,14l46 -14zm-91 30c-15,6 -30,12 -45,18l45 -18zm-89 39c-14,7 -28,15 -42,23l42 -23zm-84 48c-14,8 -28,17 -41,27l41 -27zm-81 56c-13,10 -26,20 -38,31l38 -31zm-75 64c-12,12 -24,23 -36,35l36 -35zm-70 73c-11,13 -22,26 -32,39l32 -39zm-63 81c-10,14 -19,28 -28,43l28 -43zm-54 87c-8,14 -16,29 -24,44l24 -44zm-45 91c-7,15 -12,29 -18,44l18 -44zm-35 92c-5,15 -9,31 -13,47l13 -47zm-25 96c-3,15 -6,31 -9,46l9 -46zm-16 94c-1,16 -3,32 -4,47l4 -47zm-6 97c0,16 0,32 1,48l-1 -48zm3 96c1,16 3,32 5,48l-5 -48zm12 96c3,15 6,31 10,47l-10 -47zm22 93c4,16 9,31 14,46l-14 -46zm30 93c6,15 12,29 18,43l-18 -43zm39 87c7,15 14,29 22,43l-22 -43zm47 85c9,14 18,28 27,41l-27 -41zm56 81c10,13 21,25 31,38l-31 -38zm65 75c11,12 23,24 35,35l-35 -35zm0 0c-12,-12 -23,-25 -34,-37l34 37zm-65 -75c-10,-13 -19,-26 -28,-39l28 39zm-56 -81c-9,-14 -17,-28 -25,-42l25 42zm-48 -86c-7,-14 -14,-28 -20,-43l20 43zm-38 -87c-6,-15 -11,-30 -16,-46l16 46zm-31 -93c-4,-15 -8,-30 -11,-45l11 45zm-21 -94c-3,-15 -5,-31 -7,-46l7 46zm-12 -94c-1,-15 -2,-31 -2,-46l2 46zm-3 -96c1,-16 1,-32 2,-48l-2 48zm6 -97c2,-16 4,-32 7,-48l-7 48zm16 -95c4,-16 7,-32 12,-48l-12 48zm25 -95c5,-16 11,-32 17,-47l-17 47zm35 -93c7,-15 14,-31 21,-46l-21 46zm45 -90c8,-15 17,-30 26,-44l-26 44zm54 -87c10,-14 20,-28 31,-42l-31 42zm64 -82c11,-13 22,-25 33,-37l-33 37zm69 -72c12,-11 24,-22 37,-33l-37 33zm75 -64c13,-10 26,-20 39,-29l-39 29zm81 -56c13,-9 27,-17 42,-25l-42 25zm86 -49c14,-7 28,-13 42,-20l-42 20zm87 -38c15,-6 30,-11 45,-16l-45 16zm93 -30c15,-5 30,-8 45,-12l-45 12zm94 -21c15,-3 30,-5 46,-7l-46 7zm94 -12c15,-2 31,-2 46,-3l-46 3zm96 -3c16,0 32,1 48,2l-48 -2zm96 6c16,2 32,4 48,7l-48 -7zm96 16c16,3 32,7 48,11l-48 -11zm95 25c16,5 31,10 47,16l-47 -16zm183 79l-45 -23c-15,-8 -30,-15 -45,-21l90 44zm-92 -45l-43 -17 43 17zm257 161l-35 -29c12,9 24,19 35,29zm-38 -32l-40 -29c-14,-10 -29,-20 -43,-29l43 29c13,9 27,19 40,29zm-127 -84c15,9 29,17 44,26l-44 -26z"/>
   </g>
   <path class="fil2" d="M3167 1225c453,317 563,942 246,1395 -318,453 -942,564 -1396,246 -453,-317 -563,-942 -246,-1395 318,-453 943,-564 1396,-246zm-443 593l290 167 0 0c10,6 19,14 25,25 19,33 8,74 -25,92l-290 168 -285 164c-11,8 -24,13 -39,13 -37,0 -68,-31 -68,-68l0 -335 0 -335 0 0c0,-12 3,-23 9,-34 19,-32 60,-43 93,-25l286 166c2,0 3,1 4,2zm-807 1636l-659 942c-29,41 -92,47 -140,13l-242 -170c-48,-33 -65,-95 -36,-136 219,-313 439,-626 658,-939 41,-58 84,-103 127,-134 -473,-464 -555,-1215 -163,-1776 437,-624 1297,-776 1921,-338 624,437 776,1297 339,1921 -392,560 -1126,740 -1723,454 -15,51 -42,106 -82,163z"/>
  </g>
 </g>
</svg>
