<?xml version="1.0" encoding="UTF-8"?>
<!DOCTYPE svg PUBLIC "-//W3C//DTD SVG 1.1//EN" "http://www.w3.org/Graphics/SVG/1.1/DTD/svg11.dtd">
<!-- Creator: CorelDRAW X7 -->
<svg xmlns="http://www.w3.org/2000/svg" xml:space="preserve" width="512px" height="170px" version="1.1" style="shape-rendering:geometricPrecision; text-rendering:geometricPrecision; image-rendering:optimizeQuality; fill-rule:evenodd; clip-rule:evenodd"
viewBox="0 0 51200 17000"
 xmlns:xlink="http://www.w3.org/1999/xlink">
 <defs>
  <style type="text/css">
   <![CDATA[
    .fil1 {fill:#BC272B}
    .fil0 {fill:#BC272B;fill-rule:nonzero}
   ]]>
  </style>
 </defs>
 <g id="Layer_x0020_1">
  <metadata id="CorelCorpID_0Corel-Layer"/>
  <g id="_246104680">
   <path class="fil0" d="M43737 6163l-2193 -5817c226,-34 450,-56 671,-68 222,-11 440,-17 655,-17 408,0 834,34 1276,103l1939 5850 -2432 6327c-284,45 -525,76 -723,94 -199,17 -394,25 -587,25 -204,0 -405,-8 -604,-25 -198,-18 -428,-43 -689,-77l2687 -6395zm2467 51l1905 -5850c442,-69 867,-103 1275,-103 216,0 434,6 655,17 221,12 445,34 672,68l-2160 5817 2653 6395c-261,34 -490,59 -689,77 -198,17 -400,25 -603,25 -193,0 -389,-8 -587,-25 -199,-18 -440,-49 -723,-94l-2398 -6327z"/>
   <path class="fil0" d="M30866 3765c261,-57 490,-88 689,-94 198,-5 382,-8 553,-8 226,0 459,6 697,17 238,11 453,40 646,85l1837 7671 2075 -7671c374,-68 759,-102 1156,-102 170,0 352,3 544,8 193,6 431,37 715,94l-3283 10868c-136,431 -297,788 -484,1071 -187,284 -400,505 -638,664 -238,158 -505,269 -799,331 -295,63 -613,94 -953,94 -317,0 -604,-20 -859,-60 -255,-39 -507,-93 -757,-161 -11,-57 -17,-105 -17,-145 0,-39 0,-82 0,-127 0,-273 32,-531 94,-774 62,-244 139,-479 230,-706 102,34 238,65 408,94 170,28 340,42 510,42 136,0 272,-9 408,-26 136,-16 269,-68 400,-153 130,-85 252,-218 365,-399 114,-182 216,-437 307,-765l289 -1055c-125,11 -264,20 -417,25 -153,6 -309,9 -468,9 -124,0 -243,0 -357,0 -113,0 -215,-12 -306,-34l-2585 -8793z"/>
   <path class="fil0" d="M26815 6775c0,-272 -45,-493 -136,-663 -91,-170 -215,-303 -374,-400 -159,-96 -355,-161 -587,-195 -232,-34 -490,-51 -774,-51 -612,0 -1264,119 -1956,357 -158,-295 -277,-573 -357,-834 -79,-260 -119,-572 -119,-935 499,-170 998,-295 1497,-374 499,-80 964,-119 1394,-119 1179,0 2101,283 2764,850 664,567 995,1474 995,2721l0 5103c-397,125 -879,244 -1446,357 -566,113 -1207,170 -1921,170 -579,0 -1109,-51 -1590,-153 -482,-102 -896,-272 -1242,-511 -346,-237 -613,-544 -800,-918 -187,-374 -280,-833 -280,-1377 0,-545 116,-1001 348,-1369 233,-369 533,-664 902,-885 368,-221 779,-380 1233,-476 453,-97 907,-145 1361,-145 328,0 691,17 1088,51l0 -204zm0 1752c-136,-22 -283,-42 -442,-60 -159,-16 -301,-25 -425,-25 -556,0 -995,99 -1319,298 -323,198 -484,518 -484,961 0,294 62,521 187,680 125,159 275,275 451,349 176,73 363,119 561,136 198,16 371,25 518,25 171,0 341,-14 511,-42 170,-29 317,-54 442,-77l0 -2245z"/>
   <path class="fil0" d="M15845 125c408,-68 811,-102 1208,-102 385,0 782,34 1190,102l0 8929c0,352 20,635 60,851 40,215 102,382 187,501 85,119 195,202 332,247 136,46 306,68 510,68 90,0 190,-5 297,-17 108,-11 213,-28 315,-51 125,465 187,918 187,1361 0,90 0,173 0,246 0,74 -11,156 -34,247 -181,56 -400,96 -655,119 -255,23 -490,34 -706,34 -872,0 -1573,-241 -2100,-723 -527,-482 -791,-1267 -791,-2356l0 -9456z"/>
   <path class="fil1" d="M4980 12488l-3029 4326c-132,189 -419,217 -637,64l-1094 -765c-219,-154 -290,-433 -158,-621 1008,-1439 2016,-2879 3024,-4318 125,-179 255,-329 388,-453 -622,-623 -1121,-1388 -1442,-2270 -1178,-3237 491,-6817 3728,-7995 3237,-1178 6816,491 7995,3728 1178,3237 -491,6817 -3728,7995 -1614,587 -3313,467 -4757,-203 -71,164 -166,335 -290,512zm3433 -7031l1313 757 -1 1c45,26 84,64 112,112 84,146 34,333 -113,417l-1312 758 -1287 743c-50,35 -111,57 -177,57 -170,0 -307,-138 -307,-308l0 -1515 0 -1515 1 0c0,-52 13,-104 41,-152 84,-147 271,-197 417,-113l1296 748c6,3 12,6 17,10zm3296 -528c767,2107 -320,4437 -2427,5204 -2107,767 -4437,-320 -5204,-2427 -767,-2107 319,-4437 2426,-5204 2108,-767 4438,320 5205,2427z"/>
  </g>
 </g>
</svg>
