<?xml version="1.0" encoding="UTF-8"?>
<!DOCTYPE svg PUBLIC "-//W3C//DTD SVG 1.1//EN" "http://www.w3.org/Graphics/SVG/1.1/DTD/svg11.dtd">
<!-- Creator: CorelDRAW X7 -->
<svg xmlns="http://www.w3.org/2000/svg" xml:space="preserve" width="512px" height="512px" version="1.1" style="shape-rendering:geometricPrecision; text-rendering:geometricPrecision; image-rendering:optimizeQuality; fill-rule:evenodd; clip-rule:evenodd"
viewBox="0 0 51200 51200"
 xmlns:xlink="http://www.w3.org/1999/xlink">
 <defs>
  <style type="text/css">
   <![CDATA[
    .fil2 {fill:#FEFEFE}
    .fil0 {fill:#BC272B}
    .fil1 {fill:#8E2528}
   ]]>
  </style>
 </defs>
 <g id="Layer_x0020_1">
  <metadata id="CorelCorpID_0Corel-Layer"/>
  <g id="_237154112">
   <rect class="fil0" width="51200" height="51200" rx="10391" ry="10391"/>
   <g>
    <path class="fil1" d="M35002 14063l-332 -301c113,98 224,199 332,301zm16198 9976l0 16770c0,5715 -4675,10391 -10391,10391l-25263 0 -6348 -6099 -32 -30c-374,-373 -472,-921 -204,-1303 2339,-3341 4679,-6683 7018,-10024 433,-618 894,-1088 1357,-1427 -5047,-4947 -5928,-12958 -1741,-18938 4662,-6656 13836,-8274 20493,-3613 624,437 1204,914 1739,1424l13372 12849zm-17879 -11278l-468 -278c-158,-88 -317,-171 -478,-251l-485 -225 -7 -3 -8 -3c-153,-66 -307,-128 -461,-186l-8 -3 -8 -3 -498 -173c-167,-53 -334,-102 -503,-148l2924 1273zm-3447 -1397c-164,-35 -329,-66 -495,-93l495 93zm-1008 -164c-165,-19 -332,-34 -498,-45l498 45zm-1028 -67c-172,-3 -343,-2 -514,3l514 -3zm-1027 32c-171,13 -341,31 -510,53l510 -53zm-1017 130c-169,29 -336,63 -503,101l503 -101zm-1001 226c-165,45 -328,95 -491,148l491 -148zm-975 321c-161,61 -319,126 -477,195l477 -195zm-944 415c-155,76 -307,157 -458,242l458 -242zm-905 507c-147,92 -292,188 -435,288l435 -288zm-858 598c-138,107 -275,218 -409,333l409 -333zm-803 688c-129,122 -255,247 -379,377l379 -377zm-741 776c-118,137 -233,277 -345,421l345 -421zm-672 864c-106,151 -207,303 -304,458l304 -458zm-582 926c-88,158 -171,317 -251,477l251 -477zm-482 978c-66,152 -128,306 -186,461l186 -461zm-365 974c-53,167 -102,335 -147,503l147 -503zm-272 1027c-35,164 -66,329 -93,494l93 -494zm-164 1007c-19,166 -34,332 -45,498l45 -498zm-67 1029c-3,172 -2,343 3,514l-3 -514zm32 1027c13,170 31,340 53,510l-53 -510zm130 1017c29,168 63,336 101,503l-101 -503zm226 1001c45,165 95,328 149,491l-149 -491zm327 990c59,156 123,309 190,462l-190 -462zm409 929c77,154 157,307 242,458l-242 -458zm507 905c92,147 188,292 288,435l-288 -435zm598 857c107,139 218,276 333,409l-333 -409zm688 803c122,129 247,256 377,379l-377 -379zm0 0c-122,-129 -241,-260 -355,-394l355 394zm-688 -803c-104,-134 -204,-270 -301,-409l301 409zm-598 -857c-93,-147 -181,-296 -265,-447l265 447zm-514 -919c-75,-150 -146,-301 -212,-453l212 453zm-408 -930c-62,-160 -119,-321 -172,-484l172 484zm-325 -991c-44,-160 -85,-321 -121,-482l121 482zm-225 -1001c-29,-163 -53,-327 -74,-491l74 491zm-127 -1001c-13,-165 -23,-331 -28,-497l28 497zm-32 -1027c3,-172 10,-343 21,-515l-21 515zm67 -1029c19,-171 43,-342 71,-513l-71 513zm167 -1023c36,-170 77,-339 122,-508l-122 508zm269 -1011c53,-166 111,-333 173,-498l-173 498zm371 -990c71,-162 146,-325 225,-485l-225 485zm476 -962c89,-158 181,-313 278,-468l-278 468zm582 -926c105,-152 215,-299 327,-443l-327 443zm683 -877c115,-132 232,-261 351,-386l-351 386zm730 -763c129,-123 260,-241 394,-355l-394 355zm803 -688c134,-104 271,-204 409,-301l-409 301zm858 -598c147,-93 296,-181 447,-265l-447 265zm919 -515c150,-74 301,-145 453,-212l-453 212zm930 -407c160,-62 321,-119 484,-173l-484 173zm991 -325c160,-44 321,-85 482,-121l-482 121zm1000 -225c163,-29 327,-53 492,-74l-492 74zm1002 -127c165,-13 331,-23 497,-28l-497 28zm1027 -32c171,3 343,10 514,21l-514 -21zm1028 67c172,19 343,43 513,71l-513 -71zm1024 167c170,36 339,77 507,121l-507 -121zm1010 269c167,53 333,111 498,173l-498 -173zm1953 847l-478 -251c-160,-79 -322,-154 -485,-225l963 476zm-978 -482l-461 -186 461 186zm2739 1712l-375 -308c128,101 253,203 375,308zm-409 -334l-426 -314c-151,-106 -304,-207 -458,-304l458 304c145,102 287,206 426,314zm-1352 -896c157,88 313,181 468,278l-468 -278z"/>
   </g>
   <path class="fil2" d="M33779 13065c4835,3386 6010,10050 2625,14884 -3386,4835 -10049,6010 -14884,2625 -4835,-3386 -6010,-10050 -2625,-14884 3386,-4835 10050,-6010 14884,-2625zm-4721 6324l3096 1787 -1 1c106,62 198,151 264,265 198,345 79,786 -266,985l-3096 1786 -3035 1753c-118,84 -263,134 -420,134 -399,0 -724,-324 -724,-724l0 -3575 0 -3574 3 0c0,-122 31,-246 97,-359 198,-346 639,-465 984,-267l3058 1766c14,7 27,14 40,22zm-8609 17455l-7033 10043c-305,437 -978,499 -1494,138l-2579 -1806c-515,-361 -688,-1014 -381,-1451 2339,-3341 4679,-6683 7018,-10024 433,-618 894,-1088 1357,-1427 -5047,-4947 -5928,-12958 -1741,-18938 4662,-6656 13836,-8274 20493,-3613 6657,4661 8275,13836 3614,20493 -4186,5977 -12011,7891 -18384,4845 -161,543 -442,1129 -870,1740z"/>
  </g>
 </g>
</svg>
