<?xml version="1.0" encoding="UTF-8"?>
<!DOCTYPE svg PUBLIC "-//W3C//DTD SVG 1.1//EN" "http://www.w3.org/Graphics/SVG/1.1/DTD/svg11.dtd">
<!-- Creator: CorelDRAW X7 -->
<svg xmlns="http://www.w3.org/2000/svg" xml:space="preserve" width="72px" height="72px" version="1.1" style="shape-rendering:geometricPrecision; text-rendering:geometricPrecision; image-rendering:optimizeQuality; fill-rule:evenodd; clip-rule:evenodd"
viewBox="0 0 7200 7200"
 xmlns:xlink="http://www.w3.org/1999/xlink">
 <defs>
  <style type="text/css">
   <![CDATA[
    .fil2 {fill:#FEFEFE}
    .fil0 {fill:#BC272B}
    .fil1 {fill:#8E2528}
   ]]>
  </style>
 </defs>
 <g id="Layer_x0020_1">
  <metadata id="CorelCorpID_0Corel-Layer"/>
  <g id="_240066160">
   <rect class="fil0" width="7200" height="7200" rx="1461" ry="1461"/>
   <g>
    <path class="fil1" d="M4922 1978l-46 -43c15,14 31,28 46,43zm2278 1402l0 2359c0,804 -657,1461 -1461,1461l-3553 0 -893 -858 -4 -4c-53,-52 -67,-129 -29,-183 329,-470 658,-940 987,-1410 61,-87 126,-153 191,-200 -710,-696 -834,-1823 -245,-2664 656,-936 1946,-1163 2882,-508 88,62 169,129 245,201l1880 1806zm-2514 -1585l-66 -40c-22,-12 -45,-24 -67,-35l-68 -32 -2 0 -1 0c-21,-10 -43,-18 -64,-27l-1 0 -2 0 -70 -25c-23,-7 -47,-14 -70,-20l411 179zm-485 -197c-23,-5 -46,-9 -69,-13l69 13zm-142 -23c-23,-3 -46,-5 -70,-6l70 6zm-144 -10c-24,0 -49,0 -73,1l73 -1zm-145 5c-24,2 -48,4 -71,7l71 -7zm-143 18c-23,4 -47,9 -70,14l70 -14zm-141 32c-23,6 -46,13 -69,21l69 -21zm-137 45c-22,9 -45,18 -67,28l67 -28zm-132 59c-22,10 -44,22 -65,34l65 -34zm-128 71c-20,13 -41,26 -61,40l61 -40zm-120 84c-20,15 -39,31 -58,47l58 -47zm-113 97c-18,17 -36,35 -54,53l54 -53zm-104 109c-17,19 -33,39 -49,59l49 -59zm-95 121c-15,22 -29,43 -43,65l43 -65zm-82 131c-12,22 -24,44 -35,67l35 -67zm-68 137c-9,22 -18,43 -26,65l26 -65zm-51 137c-7,24 -14,47 -21,71l21 -71zm-38 144c-5,24 -9,47 -13,70l13 -70zm-23 142c-3,23 -5,47 -6,70l6 -70zm-10 145c0,24 0,48 1,72l-1 -72zm5 144c2,24 4,48 7,72l-7 -72zm18 143c4,24 9,48 14,71l-14 -71zm32 141c6,23 13,46 21,69l-21 -69zm46 139c8,22 17,44 27,65l-27 -65zm57 131c11,22 23,43 34,64l-34 -64zm72 127c13,21 26,41 40,61l-40 -61zm84 121c15,19 30,39 47,57l-47 -57zm97 113c17,18 34,36 53,53l-53 -53zm0 0c-18,-18 -34,-37 -50,-56l50 56zm-97 -113c-15,-19 -29,-38 -42,-58l42 58zm-84 -121c-13,-20 -26,-42 -38,-63l38 63zm-73 -129c-10,-21 -20,-42 -29,-64l29 64zm-57 -131c-9,-22 -17,-45 -24,-68l24 68zm-46 -139c-6,-23 -12,-45 -17,-68l17 68zm-31 -141c-4,-23 -8,-46 -11,-69l11 69zm-18 -141c-2,-23 -3,-46 -4,-70l4 70zm-5 -144c1,-24 2,-48 3,-72l-3 72zm10 -145c2,-24 6,-48 10,-72l-10 72zm23 -144c5,-24 11,-47 17,-71l-17 71zm38 -142c8,-23 16,-47 24,-70l-24 70zm52 -139c10,-23 21,-46 32,-68l-32 68zm67 -135c13,-23 26,-45 39,-66l-39 66zm82 -131c15,-21 30,-42 46,-62l-46 62zm96 -123c16,-18 33,-37 49,-54l-49 54zm103 -107c18,-17 36,-34 55,-50l-55 50zm113 -97c19,-15 38,-29 57,-42l-57 42zm120 -84c21,-13 42,-26 63,-37l-63 37zm130 -72c21,-11 42,-21 63,-30l-63 30zm130 -58c23,-8 46,-16 68,-24l-68 24zm140 -46c22,-6 45,-11 68,-17l-68 17zm140 -31c23,-4 46,-8 70,-11l-70 11zm141 -18c23,-2 47,-3 70,-4l-70 4zm145 -5c24,1 48,2 72,3l-72 -3zm144 10c24,3 48,6 73,10l-73 -10zm144 23c24,6 48,11 72,18l-72 -18zm142 38c24,8 47,16 70,25l-70 -25zm275 119l-67 -35c-23,-11 -46,-22 -68,-32l135 67zm-138 -67l-64 -27 64 27zm386 240l-53 -43c18,14 35,29 53,43zm-58 -47l-60 -44c-21,-15 -43,-29 -64,-42l64 42c21,15 41,29 60,44zm-190 -126c22,13 44,26 66,40l-66 -40z"/>
   </g>
   <path class="fil2" d="M4750 1837c680,476 845,1414 369,2093 -476,680 -1413,846 -2093,369 -680,-476 -845,-1413 -369,-2093 476,-680 1413,-845 2093,-369zm-664 890l436 251 0 0c14,9 27,21 37,37 27,49 11,111 -38,139l-435 251 -427 246c-17,12 -37,19 -59,19 -56,0 -102,-45 -102,-101l0 -503 0 -503 1 0c0,-17 4,-35 13,-50 28,-49 90,-66 139,-38l430 248c2,1 3,2 5,4zm-1210 2454l-989 1413c-43,61 -138,70 -211,19l-362 -254c-73,-51 -97,-143 -54,-204 329,-470 658,-940 987,-1410 61,-87 126,-153 191,-200 -710,-696 -834,-1823 -245,-2664 656,-936 1946,-1163 2882,-508 936,656 1164,1946 508,2882 -588,841 -1689,1110 -2585,681 -23,77 -62,159 -122,245z"/>
  </g>
 </g>
</svg>
