<?xml version="1.0" encoding="UTF-8"?>
<!DOCTYPE svg PUBLIC "-//W3C//DTD SVG 1.1//EN" "http://www.w3.org/Graphics/SVG/1.1/DTD/svg11.dtd">
<!-- Creator: CorelDRAW X7 -->
<svg xmlns="http://www.w3.org/2000/svg" xml:space="preserve" width="96px" height="96px" version="1.1" style="shape-rendering:geometricPrecision; text-rendering:geometricPrecision; image-rendering:optimizeQuality; fill-rule:evenodd; clip-rule:evenodd"
viewBox="0 0 9600 9600"
 xmlns:xlink="http://www.w3.org/1999/xlink">
 <defs>
  <style type="text/css">
   <![CDATA[
    .fil2 {fill:#FEFEFE}
    .fil0 {fill:#BC272B}
    .fil1 {fill:#8E2528}
   ]]>
  </style>
 </defs>
 <g id="Layer_x0020_1">
  <metadata id="CorelCorpID_0Corel-Layer"/>
  <g id="_239090480">
   <rect class="fil0" width="9600" height="9600" rx="1948" ry="1948"/>
   <g>
    <path class="fil1" d="M6563 2637l-62 -57c21,19 42,38 62,57zm3037 1870l0 3145c0,1071 -877,1948 -1948,1948l-4737 0 -1190 -1143 -6 -6c-71,-70 -89,-173 -39,-244 439,-627 878,-1254 1316,-1880 81,-116 168,-204 255,-268 -947,-927 -1112,-2429 -327,-3550 874,-1249 2594,-1552 3843,-678 117,82 225,171 326,267l2507 2409zm-3352 -2114l-88 -52c-30,-17 -60,-33 -90,-47l-91 -43 -1 0 -1 -1c-29,-12 -58,-24 -87,-35l-1 0 -2 -1 -93 -32c-31,-10 -63,-20 -95,-28l549 239zm-647 -262c-30,-7 -61,-13 -92,-18l92 18zm-189 -31c-31,-4 -62,-6 -93,-8l93 8zm-192 -13c-33,0 -65,0 -97,1l97 -1zm-193 6c-32,3 -64,6 -96,10l96 -10zm-191 25c-31,5 -63,12 -94,19l94 -19zm-187 42c-31,9 -62,18 -92,28l92 -28zm-183 60c-30,12 -60,24 -90,37l90 -37zm-177 78c-29,14 -58,30 -86,45l86 -45zm-170 95c-27,17 -55,35 -81,54l81 -54zm-161 112c-26,20 -51,41 -76,63l76 -63zm-150 129c-24,23 -48,47 -71,71l71 -71zm-139 146c-22,25 -44,52 -65,79l65 -79zm-126 162c-20,28 -39,57 -57,86l57 -86zm-109 173c-17,30 -32,60 -47,90l47 -90zm-91 184c-12,28 -24,57 -35,86l35 -86zm-68 183c-10,31 -19,62 -28,94l28 -94zm-51 192c-7,31 -13,62 -18,93l18 -93zm-31 189c-4,31 -6,62 -8,93l8 -93zm-13 193c0,32 0,64 1,96l-1 -96zm6 192c3,32 6,64 10,96l-10 -96zm25 191c5,32 12,63 19,94l-19 -94zm42 188c9,31 18,61 28,92l-28 -92zm61 185c12,30 24,58 36,87l-36 -87zm77 175c15,29 30,57 46,85l-46 -85zm95 169c18,28 36,55 54,82l-54 -82zm112 161c21,26 41,52 63,77l-63 -77zm129 151c23,24 47,47 71,71l-71 -71zm0 0c-22,-25 -45,-49 -66,-74l66 74zm-129 -151c-19,-25 -38,-51 -56,-77l56 77zm-112 -161c-17,-27 -34,-55 -49,-84l49 84zm-96 -172c-14,-28 -27,-56 -40,-85l40 85zm-77 -174c-11,-30 -22,-61 -32,-91l32 91zm-61 -186c-8,-30 -15,-60 -22,-91l22 91zm-42 -188c-5,-30 -10,-61 -14,-92l14 92zm-24 -188c-2,-31 -4,-62 -5,-93l5 93zm-6 -192c1,-32 2,-65 4,-97l-4 97zm13 -193c4,-32 8,-64 13,-96l-13 96zm31 -192c7,-32 15,-64 23,-95l-23 95zm51 -189c10,-32 21,-63 32,-94l-32 94zm69 -186c14,-31 28,-61 43,-91l-43 91zm90 -181c16,-29 34,-58 52,-87l-52 87zm109 -173c20,-29 40,-56 61,-83l-61 83zm128 -165c21,-24 43,-49 66,-72l-66 72zm137 -143c24,-23 49,-45 74,-66l-74 66zm150 -129c25,-19 51,-38 77,-56l-77 56zm161 -112c28,-17 56,-34 84,-50l-84 50zm173 -96c28,-14 56,-27 84,-40l-84 40zm174 -77c30,-11 60,-22 91,-32l-91 32zm186 -61c30,-8 60,-16 90,-22l-90 22zm187 -42c31,-5 62,-10 92,-14l-92 14zm188 -24c31,-2 62,-4 93,-5l-93 5zm193 -6c32,1 64,2 96,4l-96 -4zm192 13c33,4 65,8 97,13l-97 -13zm192 31c32,7 64,15 95,23l-95 -23zm190 51c31,10 62,20 93,32l-93 -32zm366 159l-90 -47c-30,-15 -60,-29 -91,-43l181 90zm-183 -91l-87 -35 87 35zm513 321l-70 -58c24,19 47,38 70,58zm-77 -63l-79 -58c-29,-20 -57,-39 -86,-57l86 57c27,19 53,38 79,58zm-253 -167c29,16 59,33 88,52l-88 -52z"/>
   </g>
   <path class="fil2" d="M6334 2450c906,634 1126,1884 492,2790 -635,907 -1885,1127 -2791,493 -907,-635 -1127,-1885 -492,-2791 635,-907 1884,-1127 2791,-492zm-886 1185l581 335 0 1c20,11 37,28 49,49 37,65 15,148 -50,185l-580 335 -569 329c-22,15 -50,25 -79,25 -75,0 -136,-61 -136,-136l0 -670 0 -671 1 0c0,-22 6,-46 18,-67 37,-65 120,-87 184,-50l574 331c2,2 5,3 7,4zm-1614 3273l-1319 1883c-57,82 -183,94 -280,26l-483 -338c-97,-68 -129,-191 -72,-272 439,-627 878,-1254 1316,-1880 81,-116 168,-204 255,-268 -947,-927 -1112,-2429 -327,-3550 874,-1249 2594,-1552 3843,-678 1248,874 1551,2594 677,3843 -785,1120 -2252,1479 -3447,908 -30,102 -83,212 -163,326z"/>
  </g>
 </g>
</svg>
